<svg xmlns="http://www.w3.org/2000/svg" width="810" height="255" viewBox="0 0 810 255" fill="none"><path d="M157 67H51C46.5817 67 43 70.5817 43 75V181C43 185.418 46.5817 189 51 189H157C161.418 189 165 185.418 165 181V75C165 70.5817 161.418 67 157 67Z" fill="#2B4EE4"></path><mask id="mask0_4_1776" style="mask-type:alpha" maskUnits="userSpaceOnUse" x="56" y="101" width="96" height="61"><path d="M56 101.396H151.35V161.397H56V101.396Z" fill="white"></path></mask><g mask="url(#mask0_4_1776)"><path fill-rule="evenodd" clip-rule="evenodd" d="M138.27 128.506C138.27 132.026 136.97 135.245 134.811 137.705C132.25 140.655 128.47 142.526 124.25 142.526C120.92 142.526 117.861 141.365 115.46 139.426C114.811 138.915 114.21 138.335 113.68 137.705C111.52 135.245 110.22 132.026 110.22 128.506C110.22 121.766 107.76 115.596 103.68 110.856C101.92 108.805 99.8605 107.016 97.5605 105.575C93.3705 102.926 88.4195 101.396 83.1105 101.396C68.6805 101.396 56.8845 112.676 56.0515 126.897H55.9995V161.398H67.2295V137.705H72.5405C70.3795 135.245 69.0805 132.026 69.0805 128.506C69.0805 120.756 75.3605 114.475 83.1105 114.475C90.8605 114.475 97.1395 120.756 97.1395 128.506C97.1395 130.125 97.2805 131.705 97.5605 133.245C97.8205 134.785 98.2195 136.276 98.7405 137.705C99.8705 140.825 101.55 143.686 103.68 146.146C104.55 147.165 105.5 148.125 106.51 148.985C109.111 151.245 112.14 153.016 115.46 154.146C118.22 155.096 121.17 155.606 124.25 155.606C135.991 155.606 145.981 148.146 149.75 137.705C150.791 134.835 151.35 131.735 151.35 128.506H138.27Z" fill="#3AF6CC"></path></g><mask id="mask1_4_1776" style="mask-type:alpha" maskUnits="userSpaceOnUse" x="56" y="94" width="96" height="62"><path d="M56 94.0002H151.35V155.605H56V94.0002Z" fill="white"></path></mask><g mask="url(#mask1_4_1776)"><g filter="url(#filter0_d_4_1776)"><path d="M103.54 111.253C99.46 115.994 97 122.457 97 129.197C97 132.716 102.67 147.856 103.54 146.837C105.67 144.377 107.351 141.516 108.48 138.396C109 136.966 109.4 135.476 109.66 133.936C109.941 132.396 110.223 130.816 110.223 129.197C110.223 121.447 105.3 109.203 103.54 111.253Z" fill="black"></path></g><path fill-rule="evenodd" clip-rule="evenodd" d="M151.35 94H140.121V106.541C135.657 103.307 130.172 101.396 124.241 101.396C118.93 101.396 113.981 102.926 109.79 105.575C107.491 107.016 105.43 108.805 103.67 110.855C99.5895 115.596 97.1295 121.766 97.1295 128.506C97.1295 132.025 95.8295 135.245 93.6695 137.705C93.1395 138.335 92.5395 138.915 91.8895 139.426C89.4905 141.365 86.4295 142.525 83.0995 142.525C78.8795 142.525 75.0995 140.655 72.5395 137.705C70.3795 135.245 69.0795 132.025 69.0795 128.506H55.9995C55.9995 131.735 56.5595 134.835 57.5995 137.705C61.3705 148.146 71.3595 155.605 83.0995 155.605C86.1795 155.605 89.1295 155.096 91.8895 154.146C95.2095 153.016 98.2405 151.245 100.84 148.985C101.85 148.125 102.8 147.165 103.67 146.146C105.8 143.686 107.481 140.825 108.61 137.705C109.13 136.275 109.53 134.785 109.79 133.245C110.071 131.705 110.21 130.125 110.21 128.506C110.21 120.756 116.491 114.475 124.241 114.475C131.991 114.475 138.27 120.756 138.27 128.506C138.27 132.025 136.97 135.245 134.81 137.705H149.75C150.79 134.835 151.35 131.735 151.35 128.506V128.5V94Z" fill="white"></path></g><path fill-rule="evenodd" clip-rule="evenodd" d="M140.121 94.0002H151.35V128.506H140.121V94.0002Z" fill="white"></path><mask id="mask2_4_1776" style="mask-type:alpha" maskUnits="userSpaceOnUse" x="55" y="94" width="97" height="62"><path d="M151.35 94H140.121V106.541C135.657 103.307 130.172 101.396 124.241 101.396C118.93 101.396 113.981 102.926 109.79 105.575C107.491 107.016 105.43 108.805 103.67 110.855C99.5895 115.596 97.1295 121.766 97.1295 128.506C97.1295 132.025 95.8295 135.245 93.6695 137.705C93.1395 138.335 92.5395 138.915 91.8895 139.426C89.4905 141.365 86.4295 142.525 83.0995 142.525C78.8795 142.525 75.0995 140.655 72.5395 137.705C70.3795 135.245 69.0795 132.025 69.0795 128.506H55.9995C55.9995 131.735 56.5595 134.835 57.5995 137.705C61.3705 148.146 71.3595 155.605 83.0995 155.605C86.1795 155.605 89.1295 155.096 91.8895 154.146C95.2095 153.016 98.2405 151.245 100.84 148.985C101.85 148.125 102.8 147.165 103.67 146.146C105.8 143.686 107.481 140.825 108.61 137.705C109.13 136.275 109.53 134.785 109.79 133.245C110.071 131.705 110.21 130.125 110.21 128.506C110.21 120.756 116.491 114.475 124.241 114.475C131.991 114.475 138.27 120.756 138.27 128.506C138.27 132.025 136.97 135.245 134.81 137.705H149.75C150.79 134.835 151.35 131.735 151.35 128.506V128.5V94Z" fill="white"></path></mask><g mask="url(#mask2_4_1776)"><path d="M152 122H128V153H152V122Z" fill="#3AF6CC"></path></g><path fill-rule="evenodd" clip-rule="evenodd" d="M56 128.506H69.0805V161.398H56L56 128.506Z" fill="white"></path><path fill-rule="evenodd" clip-rule="evenodd" d="M159.525 93.592C159.601 92.7564 159.677 91.921 159.752 91.0854C159.805 91.9284 159.857 92.771 159.909 93.6142C159.781 93.6066 159.653 93.5993 159.525 93.592Z" fill="#2B4EE4"></path><path fill-rule="evenodd" clip-rule="evenodd" d="M38.4705 162.715C38.3364 163.542 38.2022 164.369 38.0684 165.196C38.0761 164.363 38.0837 163.531 38.092 162.699C38.2182 162.704 38.3445 162.709 38.4705 162.715Z" fill="#2B4EE4"></path><path fill-rule="evenodd" clip-rule="evenodd" d="M89.2539 117.843C89.1734 117.849 89.0929 117.855 89.0127 117.861C89.0193 117.779 89.0259 117.697 89.0328 117.614C89.1066 117.691 89.1802 117.767 89.2539 117.843Z" fill="#4083AF"></path><path d="M221.272 90.6145C234.542 90.6145 244.05 100.437 244.05 115.274C244.05 130.111 234.542 140.038 221.167 140.038C214.375 140.038 208.837 137.635 205.598 133.56V160.1H194V92.0774H203.613L204.449 98.7647C207.688 93.8537 213.853 90.6145 221.272 90.6145ZM219.077 101.168C211.241 101.168 205.912 106.81 205.912 115.483C205.912 124.051 211.241 129.485 218.973 129.485C226.914 129.485 232.139 123.738 232.139 115.378C232.139 106.81 226.914 101.168 219.077 101.168Z" fill="#2B4EE4"></path><path d="M254.291 138.68H265.889V111.93C265.889 103.385 272.279 101.231 276.565 101.169L276.756 101.168C280.308 101.168 285.951 102.84 285.951 112.557V138.68H297.654V109.841C297.654 97.8244 291.28 90.6146 280.308 90.6146C274.352 90.6146 268.815 93.1223 265.993 97.5109V67H254.291V138.68Z" fill="#2B4EE4"></path><path d="M330.359 90.6145C337.464 90.6145 343.315 93.2267 346.659 98.0332L347.599 92.0774H357.317V138.68H346.137V132.097C343.002 136.903 336.733 140.038 329.314 140.038C316.253 140.038 307.267 130.32 307.267 115.587C307.267 100.541 316.671 90.6145 330.359 90.6145ZM332.344 101.063C324.403 101.063 319.178 106.81 319.178 115.274C319.178 123.738 324.403 129.485 332.24 129.485C340.076 129.485 345.51 123.738 345.51 115.169C345.51 106.601 340.181 101.063 332.344 101.063Z" fill="#2B4EE4"></path><path d="M393.157 91.6594C387.723 91.6594 383.126 93.9582 381.663 98.7647L380.618 92.0774H370.064V138.68H381.767V115.274C381.767 106.079 387.41 100.959 397.545 102.108V92.0774C396.5 91.8684 394.828 91.6594 393.157 91.6594Z" fill="#2B4EE4"></path><path d="M460.343 90.6145C453.342 90.6145 447.909 93.8537 445.192 99.3916C442.789 93.9582 437.042 90.6145 430.25 90.6145C424.817 90.6145 419.697 93.0178 416.876 97.0928L416.249 92.0774H405.591V138.68H417.294V111.303C417.294 105.452 420.846 100.75 426.698 100.75C432.236 100.75 435.684 104.407 435.684 110.781V138.68H447.178V111.303C447.178 105.347 450.626 100.75 456.895 100.75C461.911 100.75 465.568 103.885 465.568 110.781V138.68H477.166V107.96C477.166 96.9884 470.165 90.6145 460.343 90.6145Z" fill="#2B4EE4"></path><path d="M509.976 90.6145C517.081 90.6145 522.933 93.2267 526.276 98.0332L527.217 92.0774H536.934V138.68H525.754V132.097C522.619 136.903 516.35 140.038 508.931 140.038C495.87 140.038 486.884 130.32 486.884 115.587C486.884 100.541 496.288 90.6145 509.976 90.6145ZM511.961 101.063C504.02 101.063 498.796 106.81 498.796 115.274C498.796 123.738 504.02 129.485 511.857 129.485C519.693 129.485 525.127 123.738 525.127 115.169C525.127 106.601 519.798 101.063 511.961 101.063Z" fill="#2B4EE4"></path><path d="M630.092 91C637.197 91 643.049 93.6122 646.392 98.4187L647.333 92.4629H657.05V139.065H645.87V132.482C642.735 137.289 636.466 140.423 629.047 140.423C615.986 140.423 607 130.706 607 115.973C607 100.926 616.404 91 630.092 91ZM632.077 101.449C624.136 101.449 618.912 107.196 618.912 115.659C618.912 124.123 624.136 129.87 631.973 129.87C639.81 129.87 645.243 124.123 645.243 115.555C645.243 106.987 639.914 101.449 632.077 101.449Z" fill="white"></path><path d="M694.466 92.2253H685.584V80H673.882V92.2253H665V101.838H673.882V138.827H685.584V101.838H694.466V92.2253Z" fill="white"></path><path d="M723.928 91C737.721 91 746.916 100.3 746.916 113.256C746.916 115.868 746.707 117.645 746.393 119.003H711.494C711.807 126.108 716.823 130.81 724.242 130.81C729.779 130.81 734.064 128.407 735.631 124.541H747.02C744.93 134.05 735.735 140.423 724.242 140.423C709.717 140.423 700 130.392 700 115.555C700 100.509 710.031 91 723.928 91ZM723.615 100.613C716.823 100.613 712.016 104.688 711.703 111.166H735.004C734.795 104.584 730.197 100.613 723.615 100.613Z" fill="white"></path><path d="M447.429 167.25C447.429 171.607 451.286 172.607 452.607 173L456.607 174.107C457.964 174.5 460.821 175.321 460.821 178.607C460.821 181.5 458.643 183.464 454.821 183.464C451.286 183.464 448.679 181.786 448.643 178.679H447C447.321 182.571 450.464 184.75 454.714 184.75C459.25 184.75 462.321 182.357 462.321 178.536C462.321 174.143 458.357 173.107 457.429 172.821L452.858 171.497C451.391 171.058 448.964 170.159 448.964 167.143C448.964 164.286 451.214 162.357 454.607 162.357C458.071 162.357 460.25 164.286 460.25 167.107H461.786C461.786 163.429 458.893 161 454.643 161C450.286 161 447.429 163.536 447.429 167.25ZM485.107 168.429C482.75 168.429 480.821 169.821 480.071 171.964C479.393 169.75 477.5 168.429 475.071 168.429C472.929 168.429 471.143 169.5 470.393 171.286L470.143 168.857H469.036V184.357H470.464V174.286C470.464 172.036 472.071 169.679 474.893 169.679C477.5 169.679 479.071 171.429 479.071 174.286V184.357H480.5V174.321C480.5 172.036 482.071 169.714 485 169.714C487.5 169.714 489.107 171 489.107 174.286V184.357H490.464V174.107C490.464 170.143 488.143 168.429 485.107 168.429ZM511.143 168.857L511.071 172.5C510.214 170.071 507.679 168.429 504.571 168.429C500.321 168.429 497.179 171.643 497.179 176.571C497.179 181.5 500.286 184.75 504.536 184.75C507.786 184.75 510.143 182.964 511.036 180.643V184.321H512.357V168.857H511.143ZM504.679 183.464C501.071 183.464 498.643 180.75 498.643 176.607C498.643 172.536 501.036 169.714 504.75 169.714C508.393 169.714 510.786 172.321 510.786 176.5C510.786 180.75 508.357 183.464 504.679 183.464ZM526.036 168.679C523.929 168.679 522.286 169.75 521.75 171.393L521.429 168.857H520.321V184.321H521.75V175.071C521.75 171.393 523.929 169.357 527.571 170V168.857C527.179 168.75 526.607 168.679 526.036 168.679ZM540.071 168.857H536.929V164.679H535.464V168.857H532.357V170.036H535.464V184.321H536.929V170.036H540.071V168.857ZM558.714 184.321V161.429H557.214V184.321H558.714ZM573.607 168.429C571.393 168.429 569.214 169.679 568.286 171.5L568 168.857H566.857V184.286H568.286V174.714C568.286 171.893 570.357 169.714 573.571 169.714C576.107 169.714 577.893 171.143 577.893 175.071V184.321H579.321V174.786C579.321 170.429 576.857 168.429 573.607 168.429ZM593.214 168.857H590.071V164.679H588.607V168.857H585.5V170.036H588.607V184.321H590.071V170.036H593.214V168.857ZM612.607 179.964H611.179C610.464 182.107 608.25 183.5 605.571 183.5C601.929 183.5 599.464 181 599.321 177.143H612.5L612.543 176.594C612.56 176.348 612.571 176.071 612.571 175.643C612.571 171.464 609.714 168.429 605.464 168.429C601.107 168.429 597.929 171.643 597.929 176.571C597.929 181.429 600.964 184.75 605.571 184.75C609 184.75 611.857 182.893 612.607 179.964ZM599.321 175.893C599.429 172.143 601.929 169.714 605.536 169.714C608.893 169.714 611.143 172.143 611.179 175.893H599.321ZM625.071 168.679C622.964 168.679 621.321 169.75 620.786 171.393L620.464 168.857H619.357V184.321H620.786V175.071C620.786 171.393 622.964 169.357 626.607 170V168.857C626.214 168.75 625.643 168.679 625.071 168.679ZM644.893 168.857L644.821 172.5C643.964 170.071 641.429 168.429 638.321 168.429C634.071 168.429 630.929 171.643 630.929 176.571C630.929 181.5 634.036 184.75 638.286 184.75C641.536 184.75 643.893 182.964 644.786 180.643V184.321H646.107V168.857H644.893ZM638.429 183.464C634.821 183.464 632.393 180.75 632.393 176.607C632.393 172.536 634.786 169.714 638.5 169.714C642.143 169.714 644.536 172.321 644.536 176.5C644.536 180.75 642.107 183.464 638.429 183.464ZM652.786 176.607C652.786 181.464 655.893 184.75 660.571 184.75C663.964 184.75 666.857 182.821 667.571 179.857H666.143C665.536 182 663.393 183.5 660.464 183.5C656.464 183.5 654.179 180.75 654.179 176.607C654.179 172.179 656.786 169.714 660.5 169.714C663.464 169.714 665.5 171.179 666.143 173.357H667.571C666.821 170.214 664.036 168.429 660.5 168.429C655.964 168.429 652.786 171.679 652.786 176.607ZM685.143 161.107C684.357 161.107 683.821 161.714 683.821 162.464C683.821 163.25 684.357 163.857 685.143 163.857C686 163.857 686.464 163.214 686.464 162.464C686.464 161.714 686 161.107 685.143 161.107ZM677.214 164.679H675.75V168.857H672.643V170.036H675.75V184.321H677.214V170.036H684.393V184.321H685.857V168.857H677.214V164.679ZM692.857 176.643C692.857 181.107 696.286 184.75 700.964 184.75C705.714 184.75 709.143 181.107 709.143 176.643C709.143 172.179 705.75 168.429 700.964 168.429C696.214 168.429 692.857 172.179 692.857 176.643ZM694.357 176.643C694.357 172.714 697.071 169.75 700.964 169.75C704.893 169.75 707.643 172.75 707.643 176.643C707.643 180.536 704.893 183.464 700.964 183.464C697.071 183.464 694.357 180.536 694.357 176.643ZM722.607 168.429C720.393 168.429 718.214 169.679 717.286 171.5L717 168.857H715.857V184.286H717.286V174.714C717.286 171.893 719.357 169.714 722.571 169.714C725.107 169.714 726.893 171.143 726.893 175.071V184.321H728.321V174.786C728.321 170.429 725.857 168.429 722.607 168.429ZM740.893 184.75C737.536 184.75 735.179 182.964 735.036 180.321H736.393C736.536 182.393 738.357 183.536 740.929 183.536C743.571 183.536 745.214 182.357 745.214 180.357C745.214 178.282 743.497 177.633 742.254 177.36L739.107 176.679C736.5 176.107 735.5 174.607 735.5 172.714C735.5 170.179 737.643 168.429 740.821 168.429C744.107 168.429 746.286 170.286 746.357 173H745C744.929 170.857 743.25 169.679 740.857 169.679C738.464 169.679 736.929 170.714 736.929 172.643C736.929 174.714 738.786 175.214 739.786 175.429L743.036 176.143C745.536 176.714 746.679 178.286 746.679 180.286C746.679 183.036 744.464 184.75 740.893 184.75Z" fill="#2B4EE4"></path><path fill-rule="evenodd" clip-rule="evenodd" d="M597.05 67V138.68H587.333L586.497 131.888C583.467 136.799 577.197 140.038 569.779 140.038C556.509 140.038 547 130.216 547 115.274C547 100.437 556.509 90.6146 569.779 90.6146C576.779 90.6146 582.213 93.0178 585.452 96.9884V67H597.05ZM572.077 101.064C564.136 101.064 558.912 106.81 558.912 115.274C558.912 123.738 564.136 129.485 571.973 129.485C579.81 129.485 585.243 123.738 585.243 115.17C585.243 106.601 579.914 101.064 572.077 101.064Z" fill="#3AF6CC"></path><path fill-rule="evenodd" clip-rule="evenodd" d="M630.092 91C637.197 91 643.049 93.6122 646.392 98.4187L647.333 92.4629H657.05V139.065H645.87V132.482C642.735 137.289 636.466 140.423 629.047 140.423C615.986 140.423 607 130.706 607 115.973C607 100.926 616.404 91 630.092 91ZM632.077 101.449C624.136 101.449 618.912 107.196 618.912 115.659C618.912 124.123 624.136 129.87 631.973 129.87C639.81 129.87 645.243 124.123 645.243 115.555C645.243 106.987 639.914 101.449 632.077 101.449Z" fill="#3AF6CC"></path><path fill-rule="evenodd" clip-rule="evenodd" d="M694.466 92.2253H685.584V80H673.882V92.2253H665V101.838H673.882V138.827H685.584V101.838H694.466V92.2253Z" fill="#3AF6CC"></path><path fill-rule="evenodd" clip-rule="evenodd" d="M723.928 91C737.721 91 746.916 100.3 746.916 113.256C746.916 115.868 746.707 117.645 746.393 119.003H711.494C711.807 126.108 716.823 130.81 724.242 130.81C729.779 130.81 734.064 128.407 735.631 124.541H747.02C744.93 134.05 735.735 140.423 724.242 140.423C709.717 140.423 700 130.392 700 115.555C700 100.509 710.031 91 723.928 91ZM723.615 100.613C716.823 100.613 712.016 104.688 711.703 111.166H735.004C734.795 104.584 730.197 100.613 723.615 100.613Z" fill="#3AF6CC"></path><defs><filter id="filter0_d_4_1776" x="91.5" y="104.025" width="25.2231" height="47.8608" filterUnits="userSpaceOnUse" color-interpolation-filters="sRGB"><feFlood flood-opacity="0" result="BackgroundImageFix"></feFlood><feColorMatrix in="SourceAlpha" type="matrix" values="0 0 0 0 0 0 0 0 0 0 0 0 0 0 0 0 0 0 127 0" result="hardAlpha"></feColorMatrix><feOffset dx="0.5" dy="-1"></feOffset><feGaussianBlur stdDeviation="3"></feGaussianBlur><feColorMatrix type="matrix" values="0 0 0 0 0 0 0 0 0 0 0 0 0 0 0 0 0 0 0.487953 0"></feColorMatrix><feBlend mode="normal" in2="BackgroundImageFix" result="effect1_dropShadow_4_1776"></feBlend><feBlend mode="normal" in="SourceGraphic" in2="effect1_dropShadow_4_1776" result="shape"></feBlend></filter></defs></svg>